<svg xmlns="http://www.w3.org/2000/svg" width="9.858" height="12.151" viewBox="0 0 9.858 12.151">
  <g id="Group_1175" data-name="Group 1175" transform="translate(-518.831 -266.534)">
    <g id="Group_1165" data-name="Group 1165" transform="translate(518.831 270.227)">
      <g id="Group_1163" data-name="Group 1163" transform="translate(0 0)">
        <g id="XMLID_85_" transform="translate(0)">
          <path id="up-chevron" d="M4.929,91.567,0,95.882l.512.452,4.416-3.867,4.416,3.867.512-.452Z" transform="translate(0 -91.567)" fill="#4a5056"/>
        </g>
      </g>
    </g>
    <g id="Group_1166" data-name="Group 1166" transform="translate(518.832 273.919)">
      <g id="Group_1163-2" data-name="Group 1163" transform="translate(0 0)">
        <g id="XMLID_85_2" data-name="XMLID_85_" transform="translate(0)">
          <path id="up-chevron-2" data-name="up-chevron" d="M4.929,91.567,0,95.882l.512.452,4.416-3.867,4.416,3.867.512-.452Z" transform="translate(0 -91.567)" fill="#4a5056"/>
        </g>
      </g>
    </g>
    <g id="Group_1167" data-name="Group 1167" transform="translate(518.832 266.534)">
      <g id="Group_1163-3" data-name="Group 1163" transform="translate(0 0)">
        <g id="XMLID_85_3" data-name="XMLID_85_" transform="translate(0)">
          <path id="up-chevron-3" data-name="up-chevron" d="M4.929,91.567,0,95.882l.512.452,4.416-3.867,4.416,3.867.512-.452Z" transform="translate(0 -91.567)" fill="#4a5056"/>
        </g>
      </g>
    </g>
  </g>
</svg>
